<svg enable-background="new 0 0 58 58" height="512" viewBox="0 0 58 58" width="512" xmlns="http://www.w3.org/2000/svg"><path d="m54.75 58h-51.5c-1.795 0-3.25-1.455-3.25-3.25v-43.75h58v43.75c0 1.795-1.455 3.25-3.25 3.25z" fill="#e7eced"/><path d="m58 12h-58v-8.75c0-1.795 1.455-3.25 3.25-3.25h51.5c1.795 0 3.25 1.455 3.25 3.25z" fill="#556080"/><path d="m4 4h4v4h-4z" fill="#dd352e"/><path d="m12 4h4v4h-4z" fill="#ebba16"/><path d="m20 4h4v4h-4z" fill="#23a24d"/><path d="m6 18h32v8h-32z" fill="#fff"/><path d="m6 46h46v6h-46z" fill="#23a24d"/><path d="m30 18h8v8h-8z" fill="#366db6"/><g fill="#fff"><path d="m10 41h-4c-.552 0-1-.448-1-1s.448-1 1-1h4c.552 0 1 .448 1 1s-.448 1-1 1z"/><path d="m20 41h-4c-.552 0-1-.448-1-1s.448-1 1-1h4c.552 0 1 .448 1 1s-.448 1-1 1z"/><path d="m31 41h-4c-.552 0-1-.448-1-1s.448-1 1-1h4c.552 0 1 .448 1 1s-.448 1-1 1z"/><path d="m42 41h-4c-.552 0-1-.448-1-1s.448-1 1-1h4c.552 0 1 .448 1 1s-.448 1-1 1z"/><path d="m52 41h-4c-.552 0-1-.448-1-1s.448-1 1-1h4c.552 0 1 .448 1 1s-.448 1-1 1z"/></g><path d="m6 32h4v4h-4z" fill="#ebba16"/><path d="m48 32h4v4h-4z" fill="#cc4b4c"/><path d="m38 32h4v4h-4z" fill="#dc691d"/><path d="m16 32h4v4h-4z" fill="#23a24d"/><path d="m27 32h4v4h-4z" fill="#dd352e"/><path d="m47 25c-2.206 0-4-1.794-4-4s1.794-4 4-4 4 1.794 4 4-1.794 4-4 4zm0-6c-1.103 0-2 .897-2 2s.897 2 2 2 2-.897 2-2-.897-2-2-2z" fill="#23a24d"/><path d="m52 27c-.256 0-.512-.098-.707-.293l-2.881-2.881c-.391-.391-.391-1.023 0-1.414s1.024-.391 1.414 0l2.881 2.881c.391.391.391 1.023 0 1.414-.195.195-.451.293-.707.293z" fill="#23a24d"/></svg>